<svg id="Layer_1" data-name="Layer 1" xmlns="http://www.w3.org/2000/svg" viewBox="0 0 611.05 76.56"><defs><style>.cls-1{fill:#313132;}.cls-2{fill:#008a00;}.cls-3{fill:#979797;}</style></defs><path class="cls-1" d="M183.91,66.16c2.46-7.83,7.61-9.33,15.33-9.33,7.51,0,12.76,1.5,15.23,9.33l21.12,66.58H215.32l-4.61-16.51H187.66l-4.61,16.51H162.89Zm6.54,36.13h17.47L200.74,77.2c-.43-1.39-.75-2.36-1.5-2.36s-1.18,1-1.61,2.36Z" transform="translate(-56.83 -56.83)"/><path class="cls-1" d="M239,86.64c0-7.51,3.76-10.73,10.73-10.73h13.18c15.34,0,25.85,4.19,25.85,20.48v36.35H272V100.68c0-8.15-2.25-12.43-10.4-12.43h-2.15c-2.68,0-3.75,1.07-3.75,3.75v40.74H239Z" transform="translate(-56.83 -56.83)"/><path class="cls-1" d="M351.06,104.33c0,23.16-6.54,29.06-27.45,29.06s-27.45-5.9-27.45-29.06,6.54-29.06,27.45-29.06S351.06,81.28,351.06,104.33Zm-27.45,16.73c9.11,0,10.29-5.47,10.29-16.73S332.72,87.6,323.61,87.6s-10.3,5.47-10.3,16.73S314.49,121.06,323.61,121.06Z" transform="translate(-56.83 -56.83)"/><path class="cls-1" d="M358.45,86.64c0-7.51,3.75-10.73,10.72-10.73h13.19c15.33,0,25.84,4.19,25.84,20.48v36.35H391.48V100.68c0-8.15-2.26-12.43-10.4-12.43h-2.15c-2.68,0-3.75,1.07-3.75,3.75v40.74H358.45Z" transform="translate(-56.83 -56.83)"/><path class="cls-1" d="M447.12,132.74c-25.2,0-30.67-13.94-30.67-37.53s5.47-37.52,30.67-37.52h19.19v15H455.59c-16.08,0-19.84,4.29-19.84,22.51s3.76,22.52,19.84,22.52h11.8v15Z" transform="translate(-56.83 -56.83)"/><path class="cls-1" d="M474.78,98.43c0-16.73,8.15-22.52,24.87-22.52H506V88.25h-1.71c-9.87,0-12.76,5.14-12.76,15v29.48H474.78Z" transform="translate(-56.83 -56.83)"/><path class="cls-1" d="M530.85,132.74c-17.15,0-21.66-7.72-21.66-28.63,0-23.59,4.29-28.84,25.2-28.84,17.16,0,24.66,3,24.66,22.84,0,6.43-1.93,11.69-8.9,11.69h-24c0,7,2.78,10.83,11.36,10.83h19.62v12.11Zm8-34.52c3,0,3.11-1.93,3.11-3.33,0-5.79-2.78-7.5-7.61-7.5-6.43,0-8.25,2.46-8.25,10.83Z" transform="translate(-56.83 -56.83)"/><path class="cls-1" d="M616.09,122c0,7-3.75,10.72-10.72,10.72H587.14c-18.23,0-22.3-11.26-22.3-28.41s4.07-28.42,22.3-28.42h12.22V57.69h16.73ZM591.75,88.25c-9.22,0-9.76,7.93-9.76,16.08,0,8.79.54,16.08,10,16.08h3.1c3.22,0,4.29-1.07,4.29-4.29V88.25Z" transform="translate(-56.83 -56.83)"/><path class="cls-1" d="M623.91,120.41h23c1.61,0,3.54-.43,3.54-2.89,0-3.43-4.18-5.26-8-7l-6.22-2.79c-10.08-4.5-12.87-7.72-12.87-17.16,0-10.5,5-14.69,15.66-14.69h26.8V88.25H643.86c-2.47,0-4.72.1-4.72,2.68,0,3.21,1.82,4.18,5.58,5.89l7.93,3.65c9.76,4.5,15.23,6.75,15.23,18.12,0,9.65-4.29,14.15-14.48,14.15H623.91Z" transform="translate(-56.83 -56.83)"/><path class="cls-1" d="M117.34,133.39H72a15.21,15.21,0,0,1-15.19-15.2V72.88A15.2,15.2,0,0,1,72,57.69h45.32a15.21,15.21,0,0,1,15.19,15.19v45.31A15.22,15.22,0,0,1,117.34,133.39ZM72,66.47a6.42,6.42,0,0,0-6.41,6.41v45.31A6.43,6.43,0,0,0,72,124.61h45.32a6.43,6.43,0,0,0,6.41-6.42V72.88a6.42,6.42,0,0,0-6.41-6.41Z" transform="translate(-56.83 -56.83)"/><rect class="cls-2" x="22.66" y="24.14" width="71.4" height="9.76" rx="1"/><rect class="cls-3" x="22.66" y="44.56" width="23.58" height="9.76" rx="1"/><path class="cls-2" d="M162.57,84.09,145.08,70v31.64L162.57,87.6A2.25,2.25,0,0,0,162.57,84.09Z" transform="translate(-56.83 -56.83)"/></svg>