<svg id="Layer_1" data-name="Layer 1" xmlns="http://www.w3.org/2000/svg" viewBox="0 0 455.18 320.21"><defs><style>.cls-1{fill:#313132;}.cls-2{fill:#008a00;}.cls-3{fill:#979797;}</style></defs><path class="cls-1" d="M288.35,420.11H96.68a64.35,64.35,0,0,1-64.27-64.27V164.16A64.35,64.35,0,0,1,96.68,99.89H288.35a64.35,64.35,0,0,1,64.27,64.27V355.84A64.35,64.35,0,0,1,288.35,420.11ZM96.68,137a27.17,27.17,0,0,0-27.13,27.13V355.84A27.17,27.17,0,0,0,96.68,383H288.35a27.17,27.17,0,0,0,27.13-27.13V164.16A27.17,27.17,0,0,0,288.35,137Z" transform="translate(-32.41 -99.89)"/><rect class="cls-2" x="95.84" y="98.47" width="302.04" height="41.27" rx="4.23"/><rect class="cls-3" x="95.84" y="184.87" width="99.74" height="41.27" rx="4.23"/><path class="cls-2" d="M486.75,217.24,405.7,152.08V285.91l81.05-65.16A2.25,2.25,0,0,0,486.75,217.24Z" transform="translate(-32.41 -99.89)"/></svg>