<?xml version="1.0" encoding="UTF-8"?>
<svg id="Layer_1" data-name="Layer 1" xmlns="http://www.w3.org/2000/svg" viewBox="0 0 1500 300">
  <defs>
    <style>
      .cls-1 {
        fill: #fff;
      }
    </style>
  </defs>
  <g>
    <g>
      <polygon class="cls-1" points="434.7424604 74.6628436 461.3794039 74.5201229 461.5221245 101.3949341 475.2288304 101.328671 474.9047356 39.1423882 461.1912335 39.2116247 461.3173883 62.4020339 434.6804449 62.5379584 434.55429 39.3543453 420.8450355 39.4282543 421.1716789 101.6119885 434.8851811 101.5380796 434.7424604 74.6628436"/>
      <polygon class="cls-1" points="508.4479151 101.5690873 522.154621 101.4951784 522.0186966 74.9729212 545.2091058 39.1929351 528.9470204 39.2710916 515.0950452 62.6212121 501.786343 39.4142371 484.7333472 39.5047118 508.3098668 75.041733 508.4479151 101.5690873"/>
      <path class="cls-1" d="M568.8450924,101.458224l-.1261549-24.2433989,10.0223039-.0501221c3.2817258-.0186896,6.3230352-.3427845,9.1383703-.9765322,2.8102379-.626102,5.2301178-1.6739945,7.2808778-3.1483499,2.0409905-1.4815764,3.6415008-3.448658,4.8036548-5.9088905,1.1553578-2.4725506,1.7266652-5.5159839,1.7100994-9.1506884-.0237868-3.6869506-.6668793-6.7473744-1.9432948-9.1693781-1.2717431-2.4198799-2.9818425-4.3393879-5.1230773-5.7708422-2.1531282-1.4195609-4.6656066-2.4152075-7.5382847-2.9843911-2.8697048-.5764046-5.9229077-.8499525-9.1430427-.8308382l-23.1215975,.1189339,.3313158,62.1833095,13.7088297-.0688117Zm6.7664887-50.6229355c1.2883089-.0118934,2.6386333,.0573431,4.0463008,.1928428,1.4076675,.1380483,2.691304,.4740365,3.8275474,.9863017,1.1481368,.5237339,2.0864402,1.2645221,2.8293523,2.2291609,.7335672,.9620902,1.1026871,2.2385057,1.1145804,3.8152292,.0046724,1.4645859-.2620793,2.6794106-.8142724,3.646598-.5526178,.9693112-1.2768402,1.7313376-2.1820121,2.2958488-.9119681,.5598388-1.9314014,.9693112-3.0697686,1.2025066-1.1481368,.2408411-2.3268566,.366996-3.5629195,.3695446l-9.1387951,.0475736-.0807051-14.7524746,7.0306919-.0331316Z"/>
      <polygon class="cls-1" points="655.3643993 101.3571301 655.30026 88.7153073 625.1479706 88.8673728 625.0812827 76.2183289 652.0703554 76.0756083 652.0036674 63.4261397 625.0192671 63.5692851 624.9551278 51.9800272 653.5234726 51.8275369 653.4567847 39.1784931 611.1791853 39.3997951 611.5032802 101.5835293 655.3643993 101.3571301"/>
      <path class="cls-1" d="M698.6771483,101.3567054l16.4383625-.0858023-15.964326-26.1820213c4.3988548-.8427316,7.7307028-2.8004683,9.9908714-5.8897761,2.2699382-3.0935554,3.3964121-6.8306281,3.3747491-11.2248105-.0212382-3.6223864-.6664545-6.6496787-1.9432948-9.0763548-1.2691945-2.4203046-2.9792939-4.3466089-5.1205287-5.771267-2.1556767-1.4191362-4.6469169-2.4338971-7.492835-3.0315399-2.8365732-.60274-5.8472997-.8932785-9.007543-.8767127l-24.0836877,.131252,.3168739,62.1833095,13.7135021-.0739089-.1308273-24.8576075,6.7758335-.0356802,13.1328499,24.7909196Zm-19.963478-36.3517183l-.0739089-14.1352927,8.9671904-.0454497c1.2313905-.0118934,2.4886916,.0692365,3.7774253,.2382925,1.2861851,.1716046,2.4385695,.4952747,3.4367646,.9935227,.9977704,.4952747,1.8218123,1.207179,2.4674534,2.14081,.6477649,.9289586,.978656,2.1888083,.9905494,3.7727529,.0046724,1.698206-.3546778,3.0128503-1.0763517,3.9537023-.7310187,.9404272-1.6480839,1.6361905-2.7605405,2.0792192-1.109908,.449825-2.3531919,.7119043-3.7294269,.8096-1.3745359,.0951471-2.6845078,.1478178-3.9108011,.1524902l-8.088354,.0403526Z"/>
      <polygon class="cls-1" points="763.7339854 101.2662307 763.6626251 88.6171868 738.2570722 88.7501379 737.9949928 39.2133237 724.2882869 39.2825603 724.6123818 101.4662945 763.7339854 101.2662307"/>
      <polygon class="cls-1" points="817.42584 101.3159281 817.3617006 88.6741052 787.2094112 88.8265954 787.1401747 76.1775516 814.1322208 76.0344062 814.0629843 63.3925833 787.0807078 63.528083 787.0165684 51.9388251 815.5823647 51.7863348 815.5156768 39.137291 773.2385022 39.358593 773.5647209 101.5423272 817.42584 101.3159281"/>
      <path class="cls-1" d="M874.0715026,93.3269688c3.2056931-2.6152713,5.7538516-5.8519721,7.6355557-9.6982091,1.8863764-3.8394408,2.8127865-8.2837454,2.7864511-13.3210203-.0237868-5.6803675-1.0334505-10.5005881-3.0149741-14.4780771-1.9887445-3.9774891-4.6562617-7.1904031-8.0097726-9.6625289-3.3509623-2.4674534-7.2783292-4.2561342-11.7634111-5.3443792-4.486781-1.0839974-9.228845-1.6175009-14.206653-1.5886169l-20.5683418,.1070405,.3313158,62.1837342,22.4139409-.1193587c4.625254-.0212382,9.0457718-.7170014,13.2636772-2.0911126,4.2106844-1.3668902,7.9192979-3.3607319,11.132212-5.9874718Zm-26.0439731-4.5585661l-7.1211666,.0403526-.1953914-36.8924428,8.0858054-.045025c2.8722534-.0118934,5.618352,.3355635,8.2289508,1.0597859,2.6008293,.712329,4.8869085,1.7980255,6.8255309,3.2532666,1.941171,1.4577897,3.4915592,3.3033888,4.6422445,5.5542126,1.154933,2.2508238,1.743231,4.8992267,1.7597968,7.9430847,.0169906,3.5153459-.5407244,6.4899675-1.6693221,8.9217407-1.1290224,2.4385695-2.6891802,4.4107482-4.6728275,5.9088905-1.9815235,1.5049385-4.3347155,2.5817149-7.0595758,3.2485942-2.7150908,.6549859-5.6633769,.9905494-8.824045,1.0075399Z"/>
      <path class="cls-1" d="M929.3082234,64.5713031l.0615908,12.6490438,11.1632198-.0573431,.0547945,10.1034339c-1.2861851,.7119043-3.0128503,1.4072428-5.1706508,2.0911126-2.1675701,.6834451-4.7420641,1.030902-7.7336761,1.0478925-2.927048,.0118934-5.5873442-.4668155-7.9643229-1.4484449-2.3744301-.985877-4.4226416-2.3646606-6.132741-4.1461203-1.7075508-1.7721149-3.0175227-3.875121-3.9418089-6.3022218-.9217376-2.4220037-1.383456-5.0946181-1.4025704-8.0284623-.0169906-2.8654572,.4239144-5.5329744,1.3167681-7.9932069,.9004994-2.4674534,2.1888083-4.5989186,3.875121-6.3994927,1.698206-1.7933531,3.7251793-3.1844549,6.0923885-4.198791,2.3697577-1.0075399,5.0181606-1.521929,7.9477571-1.5338224,3.5153459-.021663,6.4496149,.4621431,8.7955858,1.4433477,2.3485195,.9833284,4.4680913,2.4385695,6.3544678,4.3631747l9.6098582-10.5914876c-3.1772339-2.9130307-6.8709807-4.9561451-11.0629755-6.1378382-4.1941186-1.1787198-8.7858163-1.7525758-13.7661729-1.7241166-4.8656703,.021663-9.3456551,.8074762-13.427636,2.3578643-4.1036439,1.5384948-7.6359804,3.7370727-10.6059295,6.5923355-2.9792939,2.8607848-5.2849123,6.3141152-6.9402172,10.3582922-1.6455353,4.051398-2.4602324,8.5598419-2.4317733,13.5372251,.0288839,4.9803566,.8839337,9.4815795,2.5749187,13.5210841,1.6931089,4.029735,4.0390798,7.4571548,7.0498063,10.2792861,3.0030807,2.8272284,6.5566554,4.985029,10.6649717,6.4903922,4.1083163,1.4977175,8.5980706,2.2312847,13.463741,2.2100465,4.5704594-.0237868,9.0478956-.5122652,13.4399542-1.476904,4.3869614-.9574178,8.6001944-2.5052574,12.632478-4.6371474l-.1716046-32.5003842-24.3453423,.131252Z"/>
      <polygon class="cls-1" points="1007.5149011 99.8785271 1007.4456645 87.2362794 977.3005961 87.3959907 977.2317844 74.7422744 1004.2208571 74.599129 1004.1541692 61.9547576 977.1650965 62.0932306 977.1052048 50.5035479 1005.6688772 50.3489338 1005.6068617 37.707111 963.3296871 37.928413 963.6559057 100.1117224 1007.5149011 99.8785271"/>
      <path class="cls-1" d="M1031.0497938,99.9966114l-.1308273-24.8576075,6.7686126-.0356802,13.1400709,24.7862472,16.4383625-.0858023-15.9600783-26.1773489c4.3946072-.847404,7.7264551-2.8076893,9.9938448-5.8897761,2.2627172-3.0935554,3.3891911-6.8306281,3.3675281-11.2248105-.0212382-3.6223864-.6668793-6.6543511-1.9360738-9.0763548-1.2768402-2.4271009-2.9797187-4.351706-5.1277497-5.771267-2.1510043-1.4191362-4.6443684-2.4338971-7.4881626-3.0315399-2.8484666-.6099609-5.8519721-.8932785-9.0122154-.8767127l-24.0836877,.1261549,.3236701,62.1811856,13.7067059-.0666879Zm8.7004387-50.6416251c1.2386115-.0050972,2.4912402,.0688117,3.7846462,.2450888,1.2810879,.1669322,2.4338971,.4952747,3.4295436,.9935227,1.0049914,.4952747,1.8290333,1.207179,2.4793468,2.14081,.6430925,.9289586,.9739836,2.1888083,.985877,3.7727529,.0046724,1.698206-.3546778,3.0128503-1.0835727,3.9537023-.7288948,.9404272-1.6480839,1.6361905-2.7554433,2.0741221-1.1124566,.4549221-2.3557405,.7170014-3.7277279,.8146971-1.3787836,.0904747-2.684083,.1478178-3.9103764,.1478178l-8.088354,.045025-.0739089-14.1352927,8.9599695-.052246Z"/>
    </g>
    <g>
      <path class="cls-1" d="M511.3279308,275.3727396l-11.0527344-27.9121094h-62.1943359l-11.0527344,27.9121094h-17.796875l50.3925781-124.9501953h19.2958984l50.2041016,124.9501953h-17.7958984Zm-42.1503906-109.0273438l-26.4130859,67.4394531h53.0146484l-26.6015625-67.4394531Z"/>
      <path class="cls-1" d="M631.6873058,275.3727396l-72.8720703-99.6611328v99.6611328h-15.5478516v-124.9501953h15.9228516l71.9355469,97.5996094v-97.5996094h15.5488281v124.9501953h-14.9873047Z"/>
      <path class="cls-1" d="M668.1414074,212.9909037c0-36.9042969,25.1025391-64.6289062,62.0068359-64.6289062s62.1943359,27.7246094,62.1943359,64.6289062-25.2900391,64.6298828-62.1943359,64.6298828-62.0068359-27.7255859-62.0068359-64.6298828Zm108.0908203,0c0-29.2236328-18.1708984-50.7666016-46.0839844-50.7666016-28.0996094,0-45.8964844,21.5429688-45.8964844,50.7666016,0,29.0371094,17.796875,50.7675781,45.8964844,50.7675781,27.9130859,0,46.0839844-21.7304688,46.0839844-50.7675781Z"/>
      <path class="cls-1" d="M902.3445324,275.3727396l-72.8720703-99.6611328v99.6611328h-15.5478516v-124.9501953h15.9228516l71.9355469,97.5996094v-97.5996094h15.5488281v124.9501953h-14.9873047Z"/>
      <path class="cls-1" d="M938.7996105,212.9909037c0-38.4033203,28.2871094-64.6289062,64.2548828-64.6289062,22.1054688,0,37.4667969,10.4902344,47.3955078,24.7275391l-12.9257812,7.3056641c-7.1191406-10.6777344-20.2324219-18.1708984-34.4697266-18.1708984-27.3505859,0-48.1445312,20.7939453-48.1445312,50.7666016,0,29.5986328,20.7939453,50.7675781,48.1445312,50.7675781,14.2373047,0,27.3505859-7.6806641,34.4697266-18.171875l13.1132812,7.1191406c-10.4912109,14.4248047-25.4775391,24.9150391-47.5830078,24.9150391-35.9677734,0-64.2548828-26.2265625-64.2548828-64.6298828Z"/>
      <path class="cls-1" d="M1139.7693371,275.3727396l-31.6591797-49.6425781h-25.1025391v49.6425781h-15.5478516v-124.9501953h50.2050781c22.8544922,0,39.3388672,14.6113281,39.3388672,37.6533203,0,22.4794922-15.5478516,34.84375-32.5957031,36.3427734l33.7197266,50.9541016h-18.3583984Zm1.1240234-87.296875c0-14.2373047-10.3027344-23.7910156-25.1025391-23.7910156h-32.7832031v47.7695312h32.7832031c14.7998047,0,25.1025391-9.9287109,25.1025391-23.9785156Z"/>
      <path class="cls-1" d="M1178.7712902,275.3727396v-124.9501953h81.8632812v13.8623047h-66.3154297v40.2763672h65.0048828v13.8623047h-65.0048828v43.0869141h66.3154297v13.8623047h-81.8632812Z"/>
      <path class="cls-1" d="M1282.2517589,275.3727396v-124.9501953h42.7109375c38.9658203,0,64.0683594,27.1630859,64.0683594,62.5683594,0,35.59375-25.1025391,62.3818359-64.0683594,62.3818359h-42.7109375Zm90.6679688-62.3818359c0-26.9755859-17.046875-48.7060547-47.9570312-48.7060547h-27.1630859v97.2255859h27.1630859c30.3486328,0,47.9570312-21.7304688,47.9570312-48.5195312Z"/>
      <path class="cls-1" d="M1399.7078136,257.7633646l9.3671875-11.9892578c8.0546875,9.3671875,21.5429688,17.984375,39.1523438,17.984375,22.2919922,0,29.4111328-11.9892578,29.4111328-21.7304688,0-32.2216797-73.9960938-14.2373047-73.9960938-58.8222656,0-20.6074219,18.3583984-34.84375,43.0859375-34.84375,18.9208984,0,33.7197266,6.5566406,44.2109375,17.6083984l-9.3671875,11.4277344c-9.3662109-10.4902344-22.4794922-14.9863281-36.1542969-14.9863281-14.7998047,0-25.6650391,8.0546875-25.6650391,19.8564453,0,28.1005859,73.9960938,11.9892578,73.9960938,58.6357422,0,17.9833984-12.3632812,36.7167969-46.0839844,36.7167969-21.5429688,0-37.6533203-8.2431641-47.9570312-19.8574219Z"/>
    </g>
  </g>
  <polygon class="cls-1" points="257.664121 264.9377421 27.677976 264.9377421 27.677976 34.9524515 257.664121 34.9524515 257.664121 117.6195048 279.0908788 117.6195048 279.0908788 13.5253885 6.2511571 13.5253885 6.2511571 286.364805 279.0908788 286.364805 279.0908788 182.2706888 257.664121 182.2706888 257.664121 264.9377421"/>
  <rect class="cls-1" x="71.3995946" y="76.915159" width="141.9400635" height="21.4230347"/>
  <rect class="cls-1" x="71.3995946" y="201.552305" width="141.9400635" height="21.4230347"/>
  <polygon class="cls-1" points="322.3965429 182.2706888 322.3965429 207.6669291 391.5094579 149.9449442 322.3965429 92.2229593 322.3965429 117.6195048 322.3965429 139.0895365 322.3965429 139.2312601 71.3995946 139.2312601 71.3995946 160.6542948 322.3965429 160.6542948 322.3965429 160.8005961 322.3965429 182.2706888"/>
</svg>